<mxfile host="app.diagrams.net" modified="2024-02-24T12:10:59.393Z" agent="Mozilla/5.0 (Macintosh; Intel Mac OS X 10_15_7) AppleWebKit/537.36 (KHTML, like Gecko) Chrome/121.0.0.0 Safari/537.36" etag="QkoIfjB1xCIkkf15_Fa-" version="23.1.6" type="device">
  <diagram name="Page-1" id="smojdNkaG9koTptCWJuz">
    <mxGraphModel dx="1194" dy="734" grid="1" gridSize="10" guides="1" tooltips="1" connect="1" arrows="1" fold="1" page="1" pageScale="1" pageWidth="827" pageHeight="1169" math="0" shadow="0">
      <root>
        <mxCell id="0" />
        <mxCell id="1" parent="0" />
        <mxCell id="KJzKbxQz_OJp6_1j-sq4-1" value="Старт" style="whiteSpace=wrap;strokeWidth=2;" vertex="1" parent="1">
          <mxGeometry x="457" y="20" width="56" height="34" as="geometry" />
        </mxCell>
        <mxCell id="KJzKbxQz_OJp6_1j-sq4-2" value="Инициализация массива строк" style="whiteSpace=wrap;strokeWidth=2;" vertex="1" parent="1">
          <mxGeometry x="365" y="104" width="241" height="34" as="geometry" />
        </mxCell>
        <mxCell id="KJzKbxQz_OJp6_1j-sq4-3" value="Проверка каждой строки" style="rhombus;strokeWidth=2;whiteSpace=wrap;" vertex="1" parent="1">
          <mxGeometry x="368" y="187" width="234" height="234" as="geometry" />
        </mxCell>
        <mxCell id="KJzKbxQz_OJp6_1j-sq4-4" value="Добавить строку в результирующий массив" style="whiteSpace=wrap;strokeWidth=2;" vertex="1" parent="1">
          <mxGeometry x="20" y="489" width="339" height="34" as="geometry" />
        </mxCell>
        <mxCell id="KJzKbxQz_OJp6_1j-sq4-5" value="Пропустить строку" style="whiteSpace=wrap;strokeWidth=2;" vertex="1" parent="1">
          <mxGeometry x="409" y="489" width="153" height="34" as="geometry" />
        </mxCell>
        <mxCell id="KJzKbxQz_OJp6_1j-sq4-6" value="Все строки проверены?" style="rhombus;strokeWidth=2;whiteSpace=wrap;" vertex="1" parent="1">
          <mxGeometry x="375" y="573" width="221" height="221" as="geometry" />
        </mxCell>
        <mxCell id="KJzKbxQz_OJp6_1j-sq4-7" value="Вывод результирующего массива" style="whiteSpace=wrap;strokeWidth=2;" vertex="1" parent="1">
          <mxGeometry x="354" y="862" width="263" height="34" as="geometry" />
        </mxCell>
        <mxCell id="KJzKbxQz_OJp6_1j-sq4-8" value="Конец" style="whiteSpace=wrap;strokeWidth=2;" vertex="1" parent="1">
          <mxGeometry x="455" y="945" width="60" height="34" as="geometry" />
        </mxCell>
        <mxCell id="KJzKbxQz_OJp6_1j-sq4-9" value="" style="curved=1;startArrow=none;endArrow=block;exitX=0.5029994419642857;exitY=0.9852941176470589;entryX=0.49862227697095435;entryY=-0.014705882352941176;rounded=0;" edge="1" parent="1" source="KJzKbxQz_OJp6_1j-sq4-1" target="KJzKbxQz_OJp6_1j-sq4-2">
          <mxGeometry relative="1" as="geometry">
            <Array as="points" />
          </mxGeometry>
        </mxCell>
        <mxCell id="KJzKbxQz_OJp6_1j-sq4-10" value="" style="curved=1;startArrow=none;endArrow=block;exitX=0.49862227697095435;exitY=0.9705882352941176;entryX=0.5007178151709402;entryY=0;rounded=0;" edge="1" parent="1" source="KJzKbxQz_OJp6_1j-sq4-2" target="KJzKbxQz_OJp6_1j-sq4-3">
          <mxGeometry relative="1" as="geometry">
            <Array as="points" />
          </mxGeometry>
        </mxCell>
        <mxCell id="KJzKbxQz_OJp6_1j-sq4-11" value="Длина &lt; =3" style="curved=1;startArrow=none;endArrow=block;exitX=0.0016526442307692308;exitY=0.753896863613583;entryX=0.499665837020649;entryY=0.001838235294117647;rounded=0;" edge="1" parent="1" source="KJzKbxQz_OJp6_1j-sq4-3" target="KJzKbxQz_OJp6_1j-sq4-4">
          <mxGeometry relative="1" as="geometry">
            <Array as="points">
              <mxPoint x="189" y="455" />
            </Array>
          </mxGeometry>
        </mxCell>
        <mxCell id="KJzKbxQz_OJp6_1j-sq4-12" value="Длина &gt; 3" style="curved=1;startArrow=none;endArrow=block;entryX=0.4978298611111111;entryY=0.001838235294117647;rounded=0;" edge="1" parent="1" target="KJzKbxQz_OJp6_1j-sq4-5">
          <mxGeometry relative="1" as="geometry">
            <Array as="points" />
            <mxPoint x="485" y="420" as="sourcePoint" />
          </mxGeometry>
        </mxCell>
        <mxCell id="KJzKbxQz_OJp6_1j-sq4-13" value="" style="curved=1;startArrow=none;endArrow=block;exitX=0.499665837020649;exitY=0.9871323529411765;entryX=-0.0009191176470588235;entryY=0.2688675272344019;rounded=0;" edge="1" parent="1" source="KJzKbxQz_OJp6_1j-sq4-4" target="KJzKbxQz_OJp6_1j-sq4-6">
          <mxGeometry relative="1" as="geometry">
            <Array as="points">
              <mxPoint x="189" y="548" />
            </Array>
          </mxGeometry>
        </mxCell>
        <mxCell id="KJzKbxQz_OJp6_1j-sq4-14" value="" style="curved=1;startArrow=none;endArrow=block;exitX=0.4978298611111111;exitY=0.9871323529411765;entryX=0.49849759615384615;entryY=-0.0019796380090497737;rounded=0;" edge="1" parent="1" source="KJzKbxQz_OJp6_1j-sq4-5" target="KJzKbxQz_OJp6_1j-sq4-6">
          <mxGeometry relative="1" as="geometry">
            <Array as="points" />
          </mxGeometry>
        </mxCell>
        <mxCell id="KJzKbxQz_OJp6_1j-sq4-15" value="Нет" style="curved=1;startArrow=none;endArrow=block;exitX=0.9582693704174179;exitY=-0.0019796380090497737;entryX=0.9125266092345449;entryY=0.9981303418803419;rounded=0;" edge="1" parent="1" source="KJzKbxQz_OJp6_1j-sq4-6" target="KJzKbxQz_OJp6_1j-sq4-3">
          <mxGeometry relative="1" as="geometry">
            <Array as="points">
              <mxPoint x="610" y="548" />
              <mxPoint x="610" y="455" />
            </Array>
          </mxGeometry>
        </mxCell>
        <mxCell id="KJzKbxQz_OJp6_1j-sq4-16" value="Да" style="curved=1;startArrow=none;endArrow=block;entryX=0.49873752376425856;entryY=-0.0057444852941176475;rounded=0;" edge="1" parent="1" target="KJzKbxQz_OJp6_1j-sq4-7">
          <mxGeometry relative="1" as="geometry">
            <Array as="points" />
            <mxPoint x="485" y="790" as="sourcePoint" />
          </mxGeometry>
        </mxCell>
        <mxCell id="KJzKbxQz_OJp6_1j-sq4-17" value="" style="curved=1;startArrow=none;endArrow=block;exitX=0.49873752376425856;exitY=0.9795496323529411;entryX=0.5027994791666667;entryY=0.008961397058823529;rounded=0;" edge="1" parent="1" source="KJzKbxQz_OJp6_1j-sq4-7" target="KJzKbxQz_OJp6_1j-sq4-8">
          <mxGeometry relative="1" as="geometry">
            <Array as="points" />
          </mxGeometry>
        </mxCell>
      </root>
    </mxGraphModel>
  </diagram>
</mxfile>
